# xmcd
#
# Track frame offsets:
#	150
#	12675
#	21637
#	35025
#	46237
#	57887
#	76612
#	86587
#	99112
#	109425
#	120737
#	132300
#	141525
#	153600
#	170437
#	183112
#	198775
#	208875
#	221475
#	230250
#	241725
#	254400
#	266662
# Disc length: 3735 seconds
# Revision: 3
# Processed by: cddbd v1.5.2PL0 Copyright (c) Steve Scherf et al.
#
# Submitted via: libkcddb 0.31
#
DISCID=480e9517
DTITLE=Various Artist - Country Moods
DYEAR=1900
DGENRE=Country
TTITLE0=Bobby Bare - Music city USA
TTITLE1=Glen Campbell - Back in the Race
TTITLE2=George Jones - Seasons of my heart
TTITLE3=Buck Owens - Above and Beyound
TTITLE4=Ferlin Husky - I wished a thousand times
TTITLE5=Roy Clark - Mary Ann Regrets
TTITLE6=Roger Miller - My pillow
TTITLE7=Tommy Overstreet - I'll never break these chains
TTITLE8=The Dillards - Rueben's Train
TTITLE9=Patsy Cline - Just out of reach
TTITLE10=The Jordanaires - Ribbon of darkness
TTITLE11=Faron Young - Hello walls
TTITLE12=Diana Trask - It's a man's world
TTITLE13=Cowboy Copas - A picture from life's other side
TTITLE14=Red Sovine - A wound time can't erase
TTITLE15=Cash McCall - Across the wide Missouri
TTITLE16=Clifford James - What is truth
TTITLE17=Sanford Clark - They call me country
TTITLE18=Roger Miller - Poor little John
TTITLE19=Bobby Bare - That's how I got to memphis
TTITLE20=Tommy Overstreet - Me and you and a dog named Boo
TTITLE21=Lee Conway - City Boy
TTITLE22=Justin Tubb - Walking the floor over you
EXTD=
EXTT0=
EXTT1=
EXTT2=
EXTT3=
EXTT4=
EXTT5=
EXTT6=
EXTT7=
EXTT8=
EXTT9=
EXTT10=
EXTT11=
EXTT12=
EXTT13=
EXTT14=
EXTT15=
EXTT16=
EXTT17=
EXTT18=
EXTT19=
EXTT20=
EXTT21=
EXTT22=
PLAYORDER=
